# xmcd CD database file
#
# Track frame offsets:
#	150
#	2723
#	13181
#	27998
#	35900
#	50143
#	66560
#	76415
#	84544
#	96242
#	100595
#	114872
#	128823
#	144811
#	153737
#	167885
#	181263
#	195950
#	208644
#	217721
#
# Disc length: 3139 seconds
#
# Revision: 0
# Processed by: cddbd v1.5.2PL0 Copyright (c) Steve Scherf et al.
# Submitted via: CDex 1.70beta2
#
DISCID=0c0c4114
DTITLE=Nicotine - ACHROMATIC AMBITIOUS
DYEAR=2007
DGENRE=
TTITLE0=Intro.
TTITLE1=HATE MY GOVERNMENT
TTITLE2=DEGENERATION
TTITLE3=SUNDAYS ARE MY HOLIDAYS
TTITLE4=Saturday Night
TTITLE5=Labyrinth
TTITLE6=Never Land
TTITLE7=HELLO
TTITLE8=PUNKER SHOT -Album Shit
TTITLE9=No Respect
TTITLE10=TALK DIRTY TO ME
TTITLE11=Mr.K
TTITLE12=Nobody but you
TTITLE13=Master A Go-Go
TTITLE14=Don’t dump your music life
TTITLE15=My sweet old dayz
TTITLE16=Bad Fortune (on the highway)
TTITLE17=Crazy Claimers
TTITLE18=Japanese Wantons
TTITLE19=Unknown Track
EXTD=YEAR: 2007
EXTT0=
EXTT1=
EXTT2=
EXTT3=
EXTT4=
EXTT5=
EXTT6=
EXTT7=
EXTT8=
EXTT9=
EXTT10=
EXTT11=
EXTT12=
EXTT13=
EXTT14=
EXTT15=
EXTT16=
EXTT17=
EXTT18=
EXTT19=
PLAYORDER=
